<?xml version="1.0" encoding="UTF-8" standalone="no"?>
<svg
   xmlns:dc="http://purl.org/dc/elements/1.1/"
   xmlns:cc="http://creativecommons.org/ns#"
   xmlns:rdf="http://www.w3.org/1999/02/22-rdf-syntax-ns#"
   xmlns:svg="http://www.w3.org/2000/svg"
   xmlns="http://www.w3.org/2000/svg"
   xmlns:sodipodi="http://sodipodi.sourceforge.net/DTD/sodipodi-0.dtd"
   xmlns:inkscape="http://www.inkscape.org/namespaces/inkscape"
   height="24"
   width="24"
   version="1.1"
   id="svg903"
   sodipodi:docname="zoomToMgrs2.svg"
   inkscape:version="0.92.4 (5da689c313, 2019-01-14)"
   inkscape:export-filename="W:\My Documents\GitHub\qgis-mgrs-plugin\images\zoomicon.png"
   inkscape:export-xdpi="96"
   inkscape:export-ydpi="96">
  <metadata
     id="metadata909">
    <rdf:RDF>
      <cc:Work
         rdf:about="">
        <dc:format>image/svg+xml</dc:format>
        <dc:type
           rdf:resource="http://purl.org/dc/dcmitype/StillImage" />
        <dc:title></dc:title>
      </cc:Work>
    </rdf:RDF>
  </metadata>
  <defs
     id="defs907">
    <linearGradient
       id="a"
       gradientUnits="userSpaceOnUse"
       x1="3.0864"
       x2="20.911501"
       y1="14.0254"
       y2="10.8823"
       gradientTransform="translate(0.05813435,-0.38439819)">
      <stop
         offset="0"
         stop-color="#c8e6fa"
         id="stop865" />
      <stop
         offset=".2857"
         stop-color="#b7ddf6"
         id="stop867" />
      <stop
         offset=".8515"
         stop-color="#8ac7eb"
         id="stop869" />
      <stop
         offset="1"
         stop-color="#7dc1e8"
         id="stop871" />
    </linearGradient>
  </defs>
  <sodipodi:namedview
     pagecolor="#ffffff"
     bordercolor="#666666"
     borderopacity="1"
     objecttolerance="10"
     gridtolerance="10"
     guidetolerance="10"
     inkscape:pageopacity="0"
     inkscape:pageshadow="2"
     inkscape:window-width="1920"
     inkscape:window-height="918"
     id="namedview905"
     showgrid="false"
     inkscape:zoom="31.208333"
     inkscape:cx="1.5861148"
     inkscape:cy="12"
     inkscape:window-x="-8"
     inkscape:window-y="6"
     inkscape:window-maximized="1"
     inkscape:current-layer="svg903" />
  <path
     inkscape:connector-curvature="0"
     style="color:#000000;font-style:normal;font-variant:normal;font-weight:normal;font-stretch:normal;font-size:medium;line-height:normal;font-family:sans-serif;font-variant-ligatures:normal;font-variant-position:normal;font-variant-caps:normal;font-variant-numeric:normal;font-variant-alternates:normal;font-feature-settings:normal;text-indent:0;text-align:start;text-decoration:none;text-decoration-line:none;text-decoration-style:solid;text-decoration-color:#000000;letter-spacing:normal;word-spacing:normal;text-transform:none;writing-mode:lr-tb;direction:ltr;text-orientation:mixed;dominant-baseline:auto;baseline-shift:baseline;text-anchor:start;white-space:normal;shape-padding:0;clip-rule:nonzero;display:inline;overflow:visible;visibility:visible;opacity:1;isolation:auto;mix-blend-mode:normal;color-interpolation:sRGB;color-interpolation-filters:linearRGB;solid-color:#000000;solid-opacity:1;vector-effect:none;fill:#4774b4;fill-opacity:0.75376886;fill-rule:nonzero;stroke:none;stroke-width:0.94488192;stroke-linecap:square;stroke-linejoin:miter;stroke-miterlimit:4;stroke-dasharray:none;stroke-dashoffset:42.33071136;stroke-opacity:1;color-rendering:auto;image-rendering:auto;shape-rendering:auto;text-rendering:auto;enable-background:accumulate"
     d="M 1.2570487,1.2429521 V 1.7156081 22.66092 H 22.83908 V 1.2429521 Z m 0.94336,0.945312 h 5.925781 l 0.04102,5.78125 -5.966797,-0.0332 z m 6.86914,0 H 15.25119 l 0.04101,5.820313 -6.1816403,-0.0332 z m 7.1269533,0 h 5.699219 v 5.857422 l -5.658203,-0.03125 z m -13.9960933,6.69336 5.972656,0.0332 0.04102,5.8593749 -6.013672,-0.0332 z m 6.916015,0.03711 6.1835943,0.03516 0.04102,5.8613279 -6.1816413,-0.03516 z m 7.1289063,0.04102 5.650391,0.03125 v 5.8613279 l -5.609375,-0.0332 z m -14.0449213,6.7265619 6.021484,0.0332 0.04102,5.996094 h -6.0625 z m 6.964844,0.03906 6.1816403,0.0332 0.04297,5.957031 H 9.2082207 Z m 7.1269523,0.03906 5.603516,0.03125 v 5.919922 h -5.560547 z"
     id="rect4604"
     inkscape:export-filename="W:\My Documents\GitHub\qgis-resources\qgis-mgrs-plugin\images\copyicon.png"
     inkscape:export-xdpi="96"
     inkscape:export-ydpi="96" />
  <path
     d="M17.961 7A5.961 6.074 0 0 1 12 13.074 5.961 6.074 0 0 1 6.039 7 5.961 6.074 0 0 1 12 .926 5.961 6.074 0 0 1 17.961 7z"
     transform="matrix(1.40036 0 0 1.3742 -1.674 -.75)"
     opacity=".8"
     fill="#e6e6e6"
     stroke="#505050"
     stroke-width=".752"
     stroke-linecap="round"
     stroke-linejoin="round"
     stroke-dashoffset="7"
     id="path893" />
  <path
     d="M7.826 14.088c0 2.086 2.087 2.086 2.087 2.086l-7.304 7.304-2.087-2.087z"
     fill="#ffcc30"
     fill-rule="evenodd"
     stroke="#505050"
     stroke-linejoin="round"
     stroke-width="1.043"
     id="path895" />
  <path
     d="M6.26 15.653l2.088-2.087 2.087 2.087-2.087 2.087z"
     fill-rule="evenodd"
     stroke="#505050"
     stroke-linejoin="round"
     stroke-width="1.043"
     id="path897" />
  <path
     d="M10.435 4.175c2.087-3.13 4.635-3.545 6.26-2.087 1.626 1.46-2.086 1.044-4.173 3.13-2.087 2.088 0 6.261-2.087 6.261s-2.087-4.173 0-7.304z"
     fill="#fcffff"
     fill-rule="evenodd"
     opacity=".7"
     id="path899" />
  <path
     d="M2.087 20.87l4.174-4.174"
     opacity=".5"
     stroke="#fcffff"
     stroke-width="1.043"
     stroke-linecap="round"
     stroke-linejoin="round"
     overflow="visible"
     id="path901" />
  <circle
     r="1.8114117"
     cy="8.5233641"
     cx="15.412551"
     id="path5912"
     style="fill:#fc0000;fill-opacity:1;stroke:#000000;stroke-width:0.32751787;stroke-linejoin:round;stroke-miterlimit:4;stroke-dasharray:none;stroke-opacity:1;paint-order:normal" />
</svg>
