<svg height="24" viewBox="0 0 24 24" width="24" xmlns="http://www.w3.org/2000/svg"><path d="m 1.1419451 1.2910159 v .4726563 20.9453118 h 21.5820309 v -21.4179681 z m .94336 .9453125 h 5.925781 l .04102 5.78125 -5.966797 -.033203 z m 6.86914 0 h 6.1816409 l .04101 5.8203125 -6.1816399 -.033203 z m 7.1269529 0 h 5.699219 v 5.8574219 l -5.658203 -.03125 z m -13.9960929 6.6933594 5.972656 .033203 .04102 5.8593752 -6.013672 -.0332 z m 6.916015 .037109 6.1835939 .035156 .04102 5.8613282 -6.1816409 -.03516 z m 7.1289059 .041016 5.650391 .03125 v 5.8613282 l -5.609375 -.0332 z m -14.0449209 6.7265622 6.021484 .0332 .04102 5.996094 h -6.0625 z m 6.964844 .03906 6.1816399 .0332 .04297 5.957031 h -6.1816419 z m 7.1269519 .03906 5.603516 .03125 v 5.919922 h -5.560547 z" fill="#4774b4" fill-opacity=".75376886"/><g stroke-linejoin="round"><g fill-rule="evenodd" opacity=".65" stroke="#5b5b5c"><path d="m 8.5 17.5 v -15 h 7 l 4 4 v 11 z" fill="#fff"/><path d="m 15.5 2.5 v 4 h 4 z" fill="#f0f0f0"/></g><path d="m 4.5 21.5 v -15 h 7 l 4 4 v 11 z" fill="#fff" fill-rule="evenodd" stroke="#5b5b5c"/><path d="m 11.5 6.5 v 4 h 4 z" fill="#f0f0f0" fill-rule="evenodd" stroke="#5b5b5c"/><circle cx="9.9888277" cy="14.34637" fill="#fc0000" r="1.8131765" stroke="#000" stroke-width=".32783696"/></g></svg>