<svg height="24" viewBox="0 0 24 24" width="24" xmlns="http://www.w3.org/2000/svg"><path d="m1.1419451 1.2910159v.4726563 20.9453118h21.5820309v-21.4179681zm.94336.9453125h5.925781l.04102 5.78125-5.966797-.033203zm6.86914 0h6.1816409l.04101 5.8203125-6.1816399-.033203zm7.1269529 0h5.699219v5.8574219l-5.658203-.03125zm-13.9960929 6.6933594 5.972656.033203.04102 5.8593752-6.013672-.0332zm6.916015.037109 6.1835939.035156.04102 5.8613282-6.1816409-.03516zm7.1289059.041016 5.650391.03125v5.8613282l-5.609375-.0332zm-14.0449209 6.7265622 6.021484.0332.04102 5.996094h-6.0625zm6.964844.03906 6.1816399.0332.04297 5.957031h-6.1816419zm7.1269519.03906 5.603516.03125v5.919922h-5.560547z" fill="#4774b4" fill-opacity=".753769"/><g stroke="#000"><path d="m5.1284917 18.670391 13.8100563-13.5083798v13.6759778z" fill="#3262fc" stroke-width=".5"/><circle cx="5.094973" cy="18.707262" fill="#fc0000" r="1.813177" stroke-linejoin="round" stroke-width=".327837"/><circle cx="18.938549" cy="18.707262" fill="#fc0000" r="1.813177" stroke-linejoin="round" stroke-width=".327837"/><circle cx="18.938549" cy="5.162012" fill="#fc0000" r="1.813177" stroke-linejoin="round" stroke-width=".327837"/></g></svg>