<svg height="24" width="24" xmlns="http://www.w3.org/2000/svg"><path d="m 1.2570487 1.2429521 v .472656 20.9453119 h 21.5820313 v -21.4179679 z m .94336 .945312 h 5.925781 l .04102 5.78125 -5.966797 -.0332 z m 6.86914 0 h 6.1816413 l .04101 5.820313 -6.1816403 -.0332 z m 7.1269533 0 h 5.699219 v 5.857422 l -5.658203 -.03125 z m -13.9960933 6.69336 5.972656 .0332 .04102 5.8593749 -6.013672 -.0332 z m 6.916015 .03711 6.1835943 .03516 .04102 5.8613279 -6.1816413 -.03516 z m 7.1289063 .04102 5.650391 .03125 v 5.8613279 l -5.609375 -.0332 z m -14.0449213 6.7265619 6.021484 .0332 .04102 5.996094 h -6.0625 z m 6.964844 .03906 6.1816403 .0332 .04297 5.957031 h -6.1816423 z m 7.1269523 .03906 5.603516 .03125 v 5.919922 h -5.560547 z" fill="#4774b4" fill-opacity=".75376886"/><g stroke="#505050"><path d="m 17.961 7 a 5.961 6.074 0 0 1 -5.961 6.074 5.961 6.074 0 0 1 -5.961 -6.074 5.961 6.074 0 0 1 5.961 -6.074 5.961 6.074 0 0 1 5.961 6.074 z" style="opacity:.8;fill:#e6e6e6;stroke-width:.752;stroke-linecap:round;stroke-linejoin:round;stroke-dashoffset:7" transform="matrix(1.40036 0 0 1.3742 -1.674 -.75)"/><path d="m 7.826 14.088 c 0 2.086 2.087 2.086 2.087 2.086 l -7.304 7.304 -2.087 -2.087 z" fill="#ffcc30" fill-rule="evenodd" stroke-linejoin="round" stroke-width="1.043"/><path d="m 6.26 15.653 2.088 -2.087 2.087 2.087 -2.087 2.087 z" fill-rule="evenodd" stroke-linejoin="round" stroke-width="1.043"/></g><path d="m 10.435 4.175 c 2.087 -3.13 4.635 -3.545 6.26 -2.087 1.626 1.46 -2.086 1.044 -4.173 3.13 -2.087 2.088 0 6.261 -2.087 6.261 s -2.087 -4.173 0 -7.304 z" fill="#fcffff" fill-rule="evenodd" opacity=".7"/><path d="m 2.087 20.87 4.174 -4.174" opacity=".5" stroke="#fcffff" stroke-linecap="round" stroke-linejoin="round" stroke-width="1.043"/><circle cx="15.412551" cy="8.5233641" fill="#fc0000" r="1.8114117" stroke="#000" stroke-linejoin="round" stroke-width=".32751787"/></svg>